# 3ds Max Wavefront OBJ Exporter v0.97b - (c)2007 guruware
# File Created: 12.12.2019 18:33:04

#
# object Plane001
#

v  3.7109 0.0000 -7.7734
v  3.7109 0.0000 -6.2891
v  2.2266 0.0000 -6.2891
v  6.2891 0.0000 -2.2266
v  6.2891 0.0000 -3.7109
v  7.7734 0.0000 -3.7109
v  0.9180 0.0000 -3.5352
v  2.1875 0.0000 -3.4375
v  0.8984 0.0000 -2.1484
v  1.0547 0.0000 -8.9453
v  2.4805 0.0000 -9.0430
v  0.9570 0.0000 -7.5195
v  6.4648 0.0000 -9.0820
v  7.8516 0.0000 -9.1016
v  6.5625 0.0000 -7.8125
v  9.0820 0.0000 -6.4648
v  7.8125 0.0000 -6.5625
v  9.1016 0.0000 -7.8516
v  8.9453 0.0000 -1.0547
v  7.5195 0.0000 -0.9570
v  9.0430 0.0000 -2.4805
v  3.5352 0.0000 -0.9180
v  2.1484 0.0000 -0.8984
v  3.4375 0.0000 -2.1875
v  0.8789 0.0000 -6.3477
v  0.8984 0.0000 -4.7266
v  3.6523 0.0000 -9.1211
v  5.2734 0.0000 -9.1016
v  5.1758 0.0000 -6.3867
v  3.6133 0.0000 -4.8242
v  9.1211 0.0000 -3.6523
v  9.1016 0.0000 -5.2734
v  6.3477 0.0000 -0.8789
v  4.7266 0.0000 -0.8984
v  4.8242 0.0000 -3.6133
v  6.3867 0.0000 -5.1758
v  0.0000 0.0000 -1.2500
v  0.9766 0.0000 -0.9766
v  0.0000 0.0000 -3.7500
v  3.4766 0.0000 -3.4766
v  0.0000 0.0000 -6.2500
v  0.0000 0.0000 -8.7500
v  1.2500 0.0000 -10.0000
v  3.7500 0.0000 -10.0000
v  6.5234 0.0000 -6.5234
v  6.2500 0.0000 -10.0000
v  8.7500 0.0000 -10.0000
v  9.0234 0.0000 -9.0234
v  10.0000 0.0000 -8.7500
v  10.0000 0.0000 -6.2500
v  10.0000 0.0000 -3.7500
v  10.0000 0.0000 -1.2500
v  8.7500 0.0000 -0.0000
v  6.2500 0.0000 -0.0000
v  3.7500 0.0000 -0.0000
v  1.2500 0.0000 -0.0000
v  2.1875 0.0000 -7.8125
v  5.3125 0.0000 -7.8125
v  2.1875 0.0000 -4.6875
v  7.8125 0.0000 -2.1875
v  4.6875 0.0000 -2.1875
v  7.8125 0.0000 -5.3125
v  0.0000 0.0000 -2.5000
v  2.1875 0.0000 -2.1875
v  0.0000 0.0000 -7.5000
v  2.5000 0.0000 -10.0000
v  7.5000 0.0000 -10.0000
v  7.8125 0.0000 -7.8125
v  10.0000 0.0000 -7.5000
v  10.0000 0.0000 -2.5000
v  7.5000 0.0000 -0.0000
v  2.5000 0.0000 -0.0000
v  0.0000 0.0000 -5.0000
v  5.0000 0.0000 -10.0000
v  5.0000 0.0000 -5.0000
v  10.0000 0.0000 -5.0000
v  5.0000 0.0000 -0.0000
v  0.0000 0.0000 -0.0000
v  0.0000 0.0000 -10.0000
v  10.0000 0.0000 -10.0000
v  10.0000 0.0000 -0.0000
# 81 vertices

vn 0.0000 -1.0000 -0.0000
# 1 vertex normals

vt 0.3711 0.7773 0.0000
vt 0.3711 0.6289 0.0000
vt 0.2227 0.6289 0.0000
vt 0.6289 0.2227 0.0000
vt 0.6289 0.3711 0.0000
vt 0.7773 0.3711 0.0000
vt 0.0918 0.3535 0.0000
vt 0.2188 0.3438 0.0000
vt 0.0898 0.2148 0.0000
vt 0.1055 0.8945 0.0000
vt 0.2480 0.9043 0.0000
vt 0.0957 0.7520 0.0000
vt 0.6465 0.9082 0.0000
vt 0.7852 0.9102 0.0000
vt 0.6563 0.7813 0.0000
vt 0.9082 0.6465 0.0000
vt 0.7813 0.6563 0.0000
vt 0.9102 0.7852 0.0000
vt 0.8945 0.1055 0.0000
vt 0.7520 0.0957 0.0000
vt 0.9043 0.2480 0.0000
vt 0.3535 0.0918 0.0000
vt 0.2148 0.0898 0.0000
vt 0.3438 0.2188 0.0000
vt 0.0879 0.6348 0.0000
vt 0.0898 0.4727 0.0000
vt 0.3652 0.9121 0.0000
vt 0.5273 0.9102 0.0000
vt 0.5176 0.6387 0.0000
vt 0.3613 0.4824 0.0000
vt 0.9121 0.3652 0.0000
vt 0.9102 0.5273 0.0000
vt 0.6348 0.0879 0.0000
vt 0.4727 0.0898 0.0000
vt 0.4824 0.3613 0.0000
vt 0.6387 0.5176 0.0000
vt 0.0000 0.1250 0.0000
vt 0.0977 0.0977 0.0000
vt 0.0000 0.3750 0.0000
vt 0.3477 0.3477 0.0000
vt 0.0000 0.6250 0.0000
vt 0.0000 0.8750 0.0000
vt 0.1250 1.0000 0.0000
vt 0.3750 1.0000 0.0000
vt 0.6523 0.6523 0.0000
vt 0.6250 1.0000 0.0000
vt 0.8750 1.0000 0.0000
vt 0.9023 0.9023 0.0000
vt 1.0000 0.8750 0.0000
vt 1.0000 0.6250 0.0000
vt 1.0000 0.3750 0.0000
vt 1.0000 0.1250 0.0000
vt 0.8750 0.0000 0.0000
vt 0.6250 0.0000 0.0000
vt 0.3750 0.0000 0.0000
vt 0.1250 0.0000 0.0000
vt 0.2188 0.7813 0.0000
vt 0.5313 0.7813 0.0000
vt 0.2188 0.4688 0.0000
vt 0.7813 0.2188 0.0000
vt 0.4688 0.2188 0.0000
vt 0.7813 0.5313 0.0000
vt 0.0000 0.2500 0.0000
vt 0.2188 0.2188 0.0000
vt 0.0000 0.7500 0.0000
vt 0.2500 1.0000 0.0000
vt 0.7500 1.0000 0.0000
vt 0.7813 0.7813 0.0000
vt 1.0000 0.7500 0.0000
vt 1.0000 0.2500 0.0000
vt 0.7500 0.0000 0.0000
vt 0.2500 0.0000 0.0000
vt 0.0000 0.5000 0.0000
vt 0.5000 1.0000 0.0000
vt 0.5000 0.5000 0.0000
vt 1.0000 0.5000 0.0000
vt 0.5000 0.0000 0.0000
vt 0.0000 0.0000 0.0000
vt 0.0000 1.0000 0.0000
vt 1.0000 1.0000 0.0000
vt 1.0000 0.0000 0.0000
# 81 texture coords

o Plane001
g Plane001
s 1
f 1/1/1 2/2/1 3/3/1 
f 4/4/1 5/5/1 6/6/1 
f 7/7/1 8/8/1 9/9/1 
f 10/10/1 11/11/1 12/12/1 
f 13/13/1 14/14/1 15/15/1 
f 16/16/1 17/17/1 18/18/1 
f 19/19/1 20/20/1 21/21/1 
f 22/22/1 23/23/1 24/24/1 
f 25/25/1 3/3/1 26/26/1 
f 27/27/1 28/28/1 1/1/1 
f 2/2/1 29/29/1 30/30/1 
f 31/31/1 6/6/1 32/32/1 
f 33/33/1 34/34/1 4/4/1 
f 5/5/1 35/35/1 36/36/1 
f 37/37/1 9/9/1 38/38/1 
f 39/39/1 26/26/1 7/7/1 
f 8/8/1 30/30/1 40/40/1 
f 41/41/1 12/12/1 25/25/1 
f 42/42/1 43/43/1 10/10/1 
f 11/11/1 44/44/1 27/27/1 
f 29/29/1 15/15/1 45/45/1 
f 28/28/1 46/46/1 13/13/1 
f 14/14/1 47/47/1 48/48/1 
f 49/49/1 18/18/1 48/48/1 
f 50/50/1 32/32/1 16/16/1 
f 17/17/1 36/36/1 45/45/1 
f 51/51/1 21/21/1 31/31/1 
f 52/52/1 53/53/1 19/19/1 
f 20/20/1 54/54/1 33/33/1 
f 35/35/1 24/24/1 40/40/1 
f 34/34/1 55/55/1 22/22/1 
f 23/23/1 56/56/1 38/38/1 
f 57/57/1 1/1/1 3/3/1 
f 1/1/1 58/58/1 2/2/1 
f 3/3/1 2/2/1 59/59/1 
f 60/60/1 4/4/1 6/6/1 
f 4/4/1 61/61/1 5/5/1 
f 6/6/1 5/5/1 62/62/1 
f 63/63/1 7/7/1 9/9/1 
f 7/7/1 59/59/1 8/8/1 
f 9/9/1 8/8/1 64/64/1 
f 65/65/1 10/10/1 12/12/1 
f 10/10/1 66/66/1 11/11/1 
f 12/12/1 11/11/1 57/57/1 
f 58/58/1 13/13/1 15/15/1 
f 13/13/1 67/67/1 14/14/1 
f 15/15/1 14/14/1 68/68/1 
f 69/69/1 16/16/1 18/18/1 
f 16/16/1 62/62/1 17/17/1 
f 18/18/1 17/17/1 68/68/1 
f 70/70/1 19/19/1 21/21/1 
f 19/19/1 71/71/1 20/20/1 
f 21/21/1 20/20/1 60/60/1 
f 61/61/1 22/22/1 24/24/1 
f 22/22/1 72/72/1 23/23/1 
f 24/24/1 23/23/1 64/64/1 
f 73/73/1 25/25/1 26/26/1 
f 25/25/1 57/57/1 3/3/1 
f 26/26/1 3/3/1 59/59/1 
f 57/57/1 27/27/1 1/1/1 
f 27/27/1 74/74/1 28/28/1 
f 1/1/1 28/28/1 58/58/1 
f 59/59/1 2/2/1 30/30/1 
f 2/2/1 58/58/1 29/29/1 
f 30/30/1 29/29/1 75/75/1 
f 76/76/1 31/31/1 32/32/1 
f 31/31/1 60/60/1 6/6/1 
f 32/32/1 6/6/1 62/62/1 
f 60/60/1 33/33/1 4/4/1 
f 33/33/1 77/77/1 34/34/1 
f 4/4/1 34/34/1 61/61/1 
f 62/62/1 5/5/1 36/36/1 
f 5/5/1 61/61/1 35/35/1 
f 36/36/1 35/35/1 75/75/1 
f 78/78/1 37/37/1 38/38/1 
f 37/37/1 63/63/1 9/9/1 
f 38/38/1 9/9/1 64/64/1 
f 63/63/1 39/39/1 7/7/1 
f 39/39/1 73/73/1 26/26/1 
f 7/7/1 26/26/1 59/59/1 
f 64/64/1 8/8/1 40/40/1 
f 8/8/1 59/59/1 30/30/1 
f 40/40/1 30/30/1 75/75/1 
f 73/73/1 41/41/1 25/25/1 
f 41/41/1 65/65/1 12/12/1 
f 25/25/1 12/12/1 57/57/1 
f 65/65/1 42/42/1 10/10/1 
f 42/42/1 79/79/1 43/43/1 
f 10/10/1 43/43/1 66/66/1 
f 57/57/1 11/11/1 27/27/1 
f 11/11/1 66/66/1 44/44/1 
f 27/27/1 44/44/1 74/74/1 
f 75/75/1 29/29/1 45/45/1 
f 29/29/1 58/58/1 15/15/1 
f 45/45/1 15/15/1 68/68/1 
f 58/58/1 28/28/1 13/13/1 
f 28/28/1 74/74/1 46/46/1 
f 13/13/1 46/46/1 67/67/1 
f 68/68/1 14/14/1 48/48/1 
f 14/14/1 67/67/1 47/47/1 
f 48/48/1 47/47/1 80/80/1 
f 80/80/1 49/49/1 48/48/1 
f 49/49/1 69/69/1 18/18/1 
f 48/48/1 18/18/1 68/68/1 
f 69/69/1 50/50/1 16/16/1 
f 50/50/1 76/76/1 32/32/1 
f 16/16/1 32/32/1 62/62/1 
f 68/68/1 17/17/1 45/45/1 
f 17/17/1 62/62/1 36/36/1 
f 45/45/1 36/36/1 75/75/1 
f 76/76/1 51/51/1 31/31/1 
f 51/51/1 70/70/1 21/21/1 
f 31/31/1 21/21/1 60/60/1 
f 70/70/1 52/52/1 19/19/1 
f 52/52/1 81/81/1 53/53/1 
f 19/19/1 53/53/1 71/71/1 
f 60/60/1 20/20/1 33/33/1 
f 20/20/1 71/71/1 54/54/1 
f 33/33/1 54/54/1 77/77/1 
f 75/75/1 35/35/1 40/40/1 
f 35/35/1 61/61/1 24/24/1 
f 40/40/1 24/24/1 64/64/1 
f 61/61/1 34/34/1 22/22/1 
f 34/34/1 77/77/1 55/55/1 
f 22/22/1 55/55/1 72/72/1 
f 64/64/1 23/23/1 38/38/1 
f 23/23/1 72/72/1 56/56/1 
f 38/38/1 56/56/1 78/78/1 
# 128 faces

